<?xml version="1.0" encoding="UTF-8" standalone="no"?>
<!-- Created with Inkscape (http://www.inkscape.org/) -->

<svg
   width="8.5in"
   height="11in"
   viewBox="0 0 215.9 279.4"
   version="1.1"
   id="svg3188"
   inkscape:version="1.2.2 (b0a84865, 2022-12-01)"
   sodipodi:docname="mater-plate-sator-3mm-path2.svg"
   xmlns:inkscape="http://www.inkscape.org/namespaces/inkscape"
   xmlns:sodipodi="http://sodipodi.sourceforge.net/DTD/sodipodi-0.dtd"
   xmlns="http://www.w3.org/2000/svg"
   xmlns:svg="http://www.w3.org/2000/svg">
  <sodipodi:namedview
     id="namedview3190"
     pagecolor="#ffffff"
     bordercolor="#000000"
     borderopacity="0.25"
     inkscape:showpageshadow="2"
     inkscape:pageopacity="0.0"
     inkscape:pagecheckerboard="0"
     inkscape:deskcolor="#d1d1d1"
     inkscape:document-units="in"
     showgrid="false"
     inkscape:zoom="0.91367825"
     inkscape:cx="150.49061"
     inkscape:cy="284.56407"
     inkscape:window-width="1280"
     inkscape:window-height="912"
     inkscape:window-x="122"
     inkscape:window-y="38"
     inkscape:window-maximized="0"
     inkscape:current-layer="layer1" />
  <defs
     id="defs3185" />
  <g
     inkscape:label="Layer 1"
     inkscape:groupmode="layer"
     id="layer1">
    <path
       id="path3194"
       style="fill:none;stroke:#808000;stroke-width:0.254;stroke-dasharray:none"
       d="M 66.675 9.461438 A 6.3499999 6.3499999 0 0 0 60.325 15.811438 A 6.3499999 6.3499999 0 0 0 53.975 22.161438 A 6.3499999 6.3499999 0 0 0 56.020353 26.828853 A 41.275002 41.275002 0 0 0 25.4 66.675 A 41.275002 41.275002 0 0 0 66.675 107.95 A 41.275002 41.275002 0 0 0 107.95 66.675 A 41.275002 41.275002 0 0 0 77.353418 26.807149 A 6.3499999 6.3499999 0 0 0 79.375 22.161438 A 6.3499999 6.3499999 0 0 0 73.025 15.811438 A 6.3499999 6.3499999 0 0 0 66.675 9.461438 z " />
    <path
       id="path3802"
       style="fill:none;stroke:#808000;stroke-width:0.127"
       d="m 68.175003,66.675003 a 1.5,1.5 0 0 1 -1.5,1.5 1.5,1.5 0 0 1 -1.5,-1.5 1.5,1.5 0 0 1 1.5,-1.5 1.5,1.5 0 0 1 1.5,1.5 z" />
    <path
       id="circle10"
       style="fill:none;stroke:#808000;stroke-width:0.127"
       d="m 67.675003,104.8385 a 1,1 0 0 1 -1,1 1,1 0 0 1 -1,-1 1,1 0 0 1 1,-1 1,1 0 0 1 1,1 z" />
    <path
       id="circle12"
       style="fill:none;stroke:#808000;stroke-width:0.127"
       d="m 67.675003,28.511503 a 1,1 0 0 1 -1,1 1,1 0 0 1 -1,-1 1,1 0 0 1 1,-1 1,1 0 0 1 1,1 z" />
    <path
       id="circle14"
       style="fill:none;stroke:#808000;stroke-width:0.127"
       d="m 29.511503,66.675003 a 1,1 0 0 1 -1,1 1,1 0 0 1 -1,-1 1,1 0 0 1 1,-1 1,1 0 0 1 1,1 z" />
    <path
       id="circle16"
       style="fill:none;stroke:#808000;stroke-width:0.127"
       d="m 105.8385,66.675003 a 1,1 0 0 1 -1,1 1,1 0 0 1 -1,-1 1,1 0 0 1 1,-1 1,1 0 0 1 1,1 z" />
    <path
       id="circle411"
       style="fill:none;stroke:#808000;stroke-width:0.127"
       d="m 69.675003,15.811502 a 3,3 0 0 1 -3,3 3,3 0 0 1 -3,-3 3,3 0 0 1 3,-3 3,3 0 0 1 3,3 z" />
    <path
       id="circle415"
       style="fill:none;stroke:#808000;stroke-width:0.127"
       d="m 76.024994,22.161501 a 3,3 0 0 1 -3,3 3,3 0 0 1 -3,-3 3,3 0 0 1 3,-3 3,3 0 0 1 3,3 z" />
    <path
       id="circle419"
       style="fill:none;stroke:#808000;stroke-width:0.127"
       d="m 63.325005,22.161501 a 3,3 0 0 1 -3,3 3,3 0 0 1 -3,-3 3,3 0 0 1 3,-3 3,3 0 0 1 3,3 z" />
    <path
       d="m 49.115139,51.185501 q -0.03387,0.07902 -0.03387,0.146755 0,0.158045 0.191912,0.327378 0.2032,0.169334 0.519289,0.31609 0.327378,0.135466 0.733779,0.225778 0.4064,0.09031 0.824089,0.09031 1.072446,0 1.54658,-0.316089 0.485422,-0.31609 0.485422,-0.812801 0,-0.237067 -0.124177,-0.395112 -0.112889,-0.158044 -0.327379,-0.237067 -0.2032,-0.09031 -0.485422,-0.124178 -0.270934,-0.03387 -0.587023,-0.03387 -0.51929,0 -1.106312,0 -0.575734,-0.01129 -1.061157,-0.146756 -0.485423,-0.146756 -0.801512,-0.474134 -0.316089,-0.327378 -0.316089,-0.970845 0,-0.406401 0.225778,-0.733779 0.225778,-0.338667 0.609601,-0.575734 0.395111,-0.237067 0.925689,-0.372533 0.530579,-0.135467 1.151468,-0.135467 0.485423,0 0.835379,0.06773 0.361245,0.06773 0.620889,0.146756 0.259645,0.07902 0.428979,0.146756 0.169333,0.06773 0.282222,0.06773 0.124178,0 0.180622,-0.04516 0.05644,-0.04516 0.112889,-0.1016 l 0.135467,0.05644 -0.620889,1.298223 -0.124178,-0.07902 q 0.01129,-0.03387 0.01129,-0.146756 0,-0.07902 -0.135467,-0.191911 -0.135467,-0.112889 -0.383823,-0.214489 -0.248355,-0.112889 -0.598311,-0.180622 -0.338667,-0.07902 -0.745068,-0.07902 -0.914401,0 -1.456268,0.293512 -0.530578,0.293511 -0.530578,0.767645 0,0.214489 0.112889,0.349956 0.124178,0.124178 0.327378,0.2032 0.214489,0.06773 0.485423,0.09031 0.282222,0.02258 0.598311,0.02258 0.530579,0 1.106312,0.02258 0.575734,0.01129 1.061157,0.169333 0.485423,0.158045 0.801512,0.508001 0.316089,0.349956 0.316089,1.02729 0,0.361245 -0.191911,0.699912 -0.180622,0.327378 -0.553156,0.587022 -0.372534,0.259645 -0.92569,0.406401 -0.541867,0.146756 -1.264357,0.146756 -0.6096,0 -1.061156,-0.09031 -0.440268,-0.1016 -0.756357,-0.225778 -0.316089,-0.135467 -0.519289,-0.237067 -0.2032,-0.112889 -0.327378,-0.112889 -0.112889,0 -0.237067,0.135467 l -0.112889,-0.06773 0.6096,-1.298224 z"
       id="path35218"
       style="font-weight:300;font-size:11.2889px;font-family:Copperplate;-inkscape-font-specification:'Copperplate, Light';fill:none;stroke:#ff0000;stroke-width:0.127" />
    <path
       d="m 59.986348,50.643633 -1.275646,-2.66418 -1.174045,2.66418 z m -3.194759,1.64818 q -0.04516,0.1016 -0.1016,0.225778 -0.05644,0.124178 -0.05644,0.191911 0,0.124178 0.191911,0.124178 v 0.135467 H 55.436925 V 52.83368 q 0.06773,0 0.112889,-0.01129 0.05645,-0.01129 0.1016,-0.06773 0.04516,-0.05644 0.101601,-0.158045 0.05644,-0.112889 0.146755,-0.293511 l 2.043291,-4.560716 q 0.09031,-0.191911 0.135467,-0.282223 0.04516,-0.1016 0.04516,-0.158044 0,-0.135467 -0.203201,-0.135467 v -0.135467 h 1.64818 v 0.135467 q -0.180623,0 -0.180623,0.135467 0,0.06773 0.05645,0.180622 0.05644,0.1016 0.146756,0.293512 l 2.167469,4.492982 q 0.1016,0.2032 0.158044,0.316089 0.05645,0.112889 0.1016,0.169334 0.05644,0.05644 0.112889,0.06773 0.05645,0.01129 0.158045,0.01129 v 0.135467 H 60.72014 V 52.83368 q 0.135466,0 0.180622,-0.03387 0.04516,-0.04516 0.04516,-0.124178 0,-0.05644 -0.03387,-0.112889 -0.02258,-0.06773 -0.112889,-0.270933 l -0.428992,-0.903109 h -3.194759 z"
       id="path35220"
       style="font-weight:300;font-size:11.2889px;font-family:Copperplate;-inkscape-font-specification:'Copperplate, Light';fill:none;stroke:#ff0000;stroke-width:0.127" />
    <path
       d="m 65.325996,52.83368 q 0.158045,0 0.214489,-0.06773 0.05645,-0.07902 0.05645,-0.203201 v -4.786496 h -1.896536 q -0.214489,0 -0.3048,0.06773 -0.09031,0.05644 -0.09031,0.225778 h -0.135467 v -1.33209 h 0.135467 q 0,0.293511 0.395111,0.293511 h 4.741339 q 0.395111,0 0.395111,-0.293511 h 0.135467 v 1.33209 H 68.83685 q 0,-0.169333 -0.09031,-0.225778 -0.09031,-0.06773 -0.3048,-0.06773 h -1.896536 v 4.786493 q 0,0.124178 0.05644,0.203201 0.05644,0.06773 0.214489,0.06773 v 0.135467 h -1.490135 z"
       id="path35222"
       style="font-weight:300;font-size:11.2889px;font-family:Copperplate;-inkscape-font-specification:'Copperplate, Light';fill:none;stroke:#ff0000;stroke-width:0.127" />
    <path
       d="m 73.600739,47.731097 q -1.151468,0 -1.783646,0.609601 -0.62089,0.598311 -0.62089,1.659468 0,1.061157 0.62089,1.670757 0.632178,0.598312 1.783646,0.598312 1.151468,0 1.772357,-0.598312 0.632179,-0.6096 0.632179,-1.670757 0,-1.061157 -0.632179,-1.659468 -0.620889,-0.609601 -1.772357,-0.609601 z m 0,-0.767645 q 0.733779,0 1.354668,0.2032 0.62089,0.191911 1.072446,0.587023 0.462845,0.383822 0.7112,0.948267 0.259645,0.564445 0.259645,1.298224 0,0.733779 -0.259645,1.298224 -0.248355,0.564445 -0.7112,0.948267 -0.451556,0.383823 -1.072446,0.575734 -0.620889,0.180623 -1.354668,0.180623 -0.733778,0 -1.354668,-0.180623 -0.620889,-0.191911 -1.083734,-0.575734 -0.451556,-0.383822 -0.711201,-0.948267 -0.248356,-0.564445 -0.248356,-1.298224 0,-0.733779 0.248356,-1.298224 0.259645,-0.564445 0.711201,-0.948267 0.462845,-0.395112 1.083734,-0.587023 0.62089,-0.2032 1.354668,-0.2032 z"
       id="path35224"
       style="font-weight:300;font-size:11.2889px;font-family:Copperplate;-inkscape-font-specification:'Copperplate, Light';fill:none;stroke:#ff0000;stroke-width:0.127" />
    <path
       d="m 82.541528,49.627632 q 0.688623,0 0.970846,-0.259644 0.282222,-0.259645 0.282222,-0.711201 0,-0.225778 -0.05644,-0.383823 -0.05645,-0.158044 -0.203201,-0.259644 -0.146755,-0.112889 -0.4064,-0.158045 -0.248356,-0.05644 -0.643467,-0.05644 h -2.415825 v 1.828802 z m -2.472269,2.935114 q 0,0.124178 0.05645,0.203201 0.05644,0.06773 0.214489,0.06773 v 0.135467 h -1.490135 v -0.135467 q 0.158044,0 0.214489,-0.06773 0.05644,-0.07902 0.05644,-0.203201 v -5.12516 q 0,-0.124178 -0.05644,-0.191912 -0.05644,-0.07902 -0.214489,-0.07902 v -0.135467 h 3.781781 q 1.117602,0 1.603024,0.428978 0.485423,0.41769 0.485423,1.219202 0,0.7112 -0.372534,1.12889 -0.372533,0.417689 -1.219201,0.530578 l 1.422401,2.201336 q 0.124178,0.180622 0.191912,0.237066 0.07902,0.05645 0.248356,0.05645 v 0.135467 h -1.625602 v -0.135467 q 0.146756,0 0.180622,-0.02258 0.04516,-0.02258 0.04516,-0.07902 0,-0.06773 -0.05644,-0.124178 l -1.388534,-2.212624 h -2.077158 z"
       id="path35226"
       style="font-weight:300;font-size:11.2889px;font-family:Copperplate;-inkscape-font-specification:'Copperplate, Light';fill:none;stroke:#ff0000;stroke-width:0.127" />
    <path
       d="m 52.287312,58.921786 -1.275646,-2.664181 -1.174046,2.664181 z m -3.194759,1.648179 q -0.04516,0.1016 -0.1016,0.225778 -0.05645,0.124178 -0.05645,0.191912 0,0.124177 0.191911,0.124177 v 0.135467 H 47.73788 v -0.135467 q 0.06773,0 0.112889,-0.01129 0.05644,-0.01129 0.1016,-0.06773 0.04516,-0.05644 0.1016,-0.158044 0.05644,-0.112889 0.146756,-0.293512 l 2.043291,-4.560716 q 0.09031,-0.191911 0.135466,-0.282222 0.04516,-0.1016 0.04516,-0.158045 0,-0.135467 -0.2032,-0.135467 V 55.30934 h 1.648179 v 0.135466 q -0.180622,0 -0.180622,0.135467 0,0.06773 0.05644,0.180623 0.05645,0.1016 0.146756,0.293511 l 2.167469,4.492982 q 0.1016,0.203201 0.158045,0.31609 0.05644,0.112889 0.1016,0.169333 0.05644,0.05645 0.112889,0.06773 0.05644,0.01129 0.158044,0.01129 v 0.135467 h -1.569157 v -0.135467 q 0.135467,0 0.180622,-0.03387 0.04516,-0.04516 0.04516,-0.124178 0,-0.05645 -0.03387,-0.112889 -0.02258,-0.06773 -0.112889,-0.270934 l -0.428974,-0.903108 h -3.194759 z"
       id="path35229"
       style="font-weight:300;font-size:11.2889px;font-family:Copperplate;-inkscape-font-specification:'Copperplate, Light';fill:none;stroke:#ff0000;stroke-width:0.127" />
    <path
       d="m 59.794428,57.905785 q 0.688623,0 0.970846,-0.259645 0.282222,-0.259645 0.282222,-0.711201 0,-0.225778 -0.05644,-0.383822 -0.05645,-0.158045 -0.2032,-0.259645 -0.146756,-0.112889 -0.406401,-0.158045 -0.248356,-0.05644 -0.643467,-0.05644 h -2.415825 v 1.828802 z m -2.472269,2.935114 q 0,0.124178 0.05645,0.2032 0.05644,0.06773 0.214489,0.06773 v 0.135467 h -1.490135 v -0.135467 q 0.158044,0 0.214489,-0.06773 0.05645,-0.07902 0.05645,-0.2032 v -5.125161 q 0,-0.124178 -0.05645,-0.191911 -0.05644,-0.07902 -0.214489,-0.07902 v -0.135466 h 3.781782 q 1.117601,0 1.603023,0.428978 0.485423,0.417689 0.485423,1.219201 0,0.711201 -0.372534,1.12889 -0.372533,0.417689 -1.219201,0.530578 l 1.422402,2.201336 q 0.124177,0.180622 0.191911,0.237067 0.07902,0.05644 0.248356,0.05644 v 0.135467 h -1.625602 v -0.135467 q 0.146756,0 0.180622,-0.02258 0.04516,-0.02258 0.04516,-0.07902 0,-0.06773 -0.05644,-0.124178 L 59.39933,58.673429 h -2.077158 z"
       id="path35231"
       style="font-weight:300;font-size:11.2889px;font-family:Copperplate;-inkscape-font-specification:'Copperplate, Light';fill:none;stroke:#ff0000;stroke-width:0.127" />
    <path
       d="m 64.456724,55.715738 q 0,-0.124178 -0.05644,-0.191911 -0.05644,-0.07902 -0.214489,-0.07902 v -0.135466 h 4.730049 q 0.293511,0 0.372534,-0.04516 0.07902,-0.05644 0.07902,-0.180622 h 0.135467 v 1.286934 h -0.135467 q 0,-0.146755 -0.09031,-0.225778 -0.09031,-0.09031 -0.349956,-0.09031 h -3.52214 v 1.783646 h 2.291647 q 0.2032,0 0.327378,-0.06773 0.135467,-0.06773 0.135467,-0.248356 h 0.135466 v 1.365957 h -0.135466 q 0,-0.169333 -0.101601,-0.237067 -0.1016,-0.06773 -0.338667,-0.06773 h -2.314224 v 1.919113 h 3.770493 q 0.237066,0 0.349955,-0.07902 0.112889,-0.09031 0.112889,-0.304801 h 0.135467 v 1.343379 h -0.135467 q 0,-0.214489 -0.395111,-0.214489 H 64.185791 V 61.11184 q 0.158044,0 0.214489,-0.06773 0.05644,-0.07902 0.05644,-0.2032 z"
       id="path35233"
       style="font-weight:300;font-size:11.2889px;font-family:Copperplate;-inkscape-font-specification:'Copperplate, Light';fill:none;stroke:#ff0000;stroke-width:0.127" />
    <path
       d="m 75.440822,57.905785 q 0.688623,0 0.970846,-0.259645 0.282222,-0.259645 0.282222,-0.711201 0,-0.440267 -0.259644,-0.643467 -0.248356,-0.214489 -0.993424,-0.214489 h -2.551291 v 1.828802 z m -3.499559,-2.190047 q 0,-0.124178 -0.05644,-0.191911 -0.05644,-0.07902 -0.214489,-0.07902 v -0.135466 h 3.79307 q 1.117601,0 1.603024,0.417689 0.485423,0.417689 0.485423,1.174046 0,0.846667 -0.485423,1.309512 -0.474134,0.462845 -1.569157,0.462845 h -2.607736 v 2.167469 q 0,0.124178 0.05644,0.2032 0.05645,0.06773 0.214489,0.06773 v 0.135467 H 71.67033 v -0.135467 q 0.158044,0 0.214489,-0.06773 0.05644,-0.07902 0.05644,-0.2032 z"
       id="path35235"
       style="font-weight:300;font-size:11.2889px;font-family:Copperplate;-inkscape-font-specification:'Copperplate, Light';fill:none;stroke:#ff0000;stroke-width:0.127" />
    <path
       d="m 82.214161,56.009249 q -1.151467,0 -1.783646,0.609601 -0.620889,0.598312 -0.620889,1.659468 0,1.061157 0.620889,1.670758 0.632179,0.598311 1.783646,0.598311 1.151468,0 1.772358,-0.598311 0.632178,-0.609601 0.632178,-1.670758 0,-1.061156 -0.632178,-1.659468 -0.62089,-0.609601 -1.772358,-0.609601 z m 0,-0.767645 q 0.733779,0 1.354669,0.2032 0.620889,0.191912 1.072445,0.587023 0.462845,0.383823 0.711201,0.948268 0.259644,0.564445 0.259644,1.298223 0,0.733779 -0.259644,1.298224 -0.248356,0.564445 -0.711201,0.948268 -0.451556,0.383822 -1.072445,0.575734 -0.62089,0.180622 -1.354669,0.180622 -0.733778,0 -1.354668,-0.180622 -0.620889,-0.191912 -1.083734,-0.575734 -0.451556,-0.383823 -0.711201,-0.948268 -0.248356,-0.564445 -0.248356,-1.298224 0,-0.733778 0.248356,-1.298223 0.259645,-0.564445 0.711201,-0.948268 0.462845,-0.395111 1.083734,-0.587023 0.62089,-0.2032 1.354668,-0.2032 z"
       id="path35237"
       style="font-weight:300;font-size:11.2889px;font-family:Copperplate;-inkscape-font-specification:'Copperplate, Light';fill:none;stroke:#ff0000;stroke-width:0.127" />
    <path
       d="m 50.56011,69.548028 q 0.158044,0 0.214489,-0.06773 0.05644,-0.07902 0.05644,-0.2032 v -4.786494 h -1.896535 q -0.214489,0 -0.3048,0.06773 -0.09031,0.05644 -0.09031,0.225778 h -0.135467 v -1.33209 h 0.135467 q 0,0.293511 0.395111,0.293511 h 4.741338 q 0.395112,0 0.395112,-0.293511 h 0.135467 v 1.33209 h -0.135467 q 0,-0.169334 -0.09031,-0.225778 -0.09031,-0.06773 -0.304801,-0.06773 h -1.896535 v 4.786494 q 0,0.124178 0.05644,0.2032 0.05645,0.06773 0.21449,0.06773 v 0.135467 h -1.490135 z"
       id="path35240"
       style="font-weight:300;font-size:11.2889px;font-family:Copperplate;-inkscape-font-specification:'Copperplate, Light';fill:none;stroke:#ff0000;stroke-width:0.127" />
    <path
       d="m 56.136806,64.151933 q 0,-0.124177 -0.05644,-0.191911 -0.05644,-0.07902 -0.214489,-0.07902 v -0.135469 h 4.730049 q 0.293512,0 0.372534,-0.04516 0.07902,-0.05644 0.07902,-0.180622 h 0.135467 v 1.286935 H 61.04748 q 0,-0.146756 -0.09031,-0.225778 -0.09031,-0.09031 -0.349956,-0.09031 h -3.522137 v 1.783647 h 2.291647 q 0.2032,0 0.327378,-0.06773 0.135467,-0.06773 0.135467,-0.248355 h 0.135467 v 1.365956 h -0.135467 q 0,-0.169333 -0.1016,-0.237066 -0.1016,-0.06773 -0.338667,-0.06773 h -2.314225 v 1.919113 h 3.770493 q 0.237067,0 0.349956,-0.07902 0.112889,-0.09031 0.112889,-0.3048 h 0.135467 v 1.343379 h -0.135467 q 0,-0.214489 -0.395112,-0.214489 h -5.057431 v -0.135467 q 0.158045,0 0.214489,-0.06773 0.05644,-0.07902 0.05644,-0.2032 z"
       id="path35242"
       style="font-weight:300;font-size:11.2889px;font-family:Copperplate;-inkscape-font-specification:'Copperplate, Light';fill:none;stroke:#ff0000;stroke-width:0.127" />
    <path
       d="m 68.814239,68.19336 v -4.041427 q 0,-0.124177 -0.05645,-0.191911 -0.05644,-0.07902 -0.214489,-0.07902 v -0.135469 h 1.354668 V 63.881 q -0.158044,0 -0.214489,0.07902 -0.05644,0.06773 -0.05644,0.191911 v 5.125161 q 0,0.124178 0.05644,0.2032 0.05644,0.06773 0.214489,0.06773 v 0.135467 h -1.444979 v -0.135467 q 0.225778,0 0.225778,-0.09031 0,-0.07902 -0.04516,-0.124178 -0.04515,-0.05644 -0.06773,-0.09031 l -4.018843,-4.572001 v 4.605871 q 0,0.124178 0.05644,0.2032 0.05644,0.06773 0.214489,0.06773 v 0.135467 h -1.354668 v -0.135467 q 0.158045,0 0.214489,-0.06773 0.05644,-0.07902 0.05644,-0.2032 v -5.125161 q 0,-0.124177 -0.05644,-0.191911 -0.05644,-0.07902 -0.214489,-0.07902 v -0.135469 h 1.907824 V 63.881 q -0.124178,0 -0.169333,0.03387 -0.04516,0.02258 -0.04516,0.09031 0,0.03387 0.02258,0.07902 0.03387,0.03387 0.06773,0.06773 l 3.544715,4.041427 z"
       id="path35244"
       style="font-weight:300;font-size:11.2889px;font-family:Copperplate;-inkscape-font-specification:'Copperplate, Light';fill:none;stroke:#ff0000;stroke-width:0.127" />
    <path
       d="m 72.449264,64.151933 q 0,-0.124177 -0.05645,-0.191911 -0.05644,-0.07902 -0.214489,-0.07902 v -0.135469 h 4.730049 q 0.293512,0 0.372534,-0.04516 0.07902,-0.05644 0.07902,-0.180622 h 0.135474 v 1.286935 h -0.135467 q 0,-0.146756 -0.09031,-0.225778 -0.09031,-0.09031 -0.349956,-0.09031 h -3.522137 v 1.783647 h 2.291647 q 0.2032,0 0.327378,-0.06773 0.135467,-0.06773 0.135467,-0.248355 h 0.135467 v 1.365956 h -0.135467 q 0,-0.169333 -0.1016,-0.237066 -0.1016,-0.06773 -0.338667,-0.06773 h -2.314225 v 1.919113 h 3.770493 q 0.237067,0 0.349956,-0.07902 0.112889,-0.09031 0.112889,-0.3048 h 0.135467 v 1.343379 H 77.63087 q 0,-0.214489 -0.395112,-0.214489 h -5.057427 v -0.135467 q 0.158045,0 0.214489,-0.06773 0.05645,-0.07902 0.05645,-0.2032 z"
       id="path35246"
       style="font-weight:300;font-size:11.2889px;font-family:Copperplate;-inkscape-font-specification:'Copperplate, Light';fill:none;stroke:#ff0000;stroke-width:0.127" />
    <path
       d="m 81.29976,69.548028 q 0.158045,0 0.21449,-0.06773 0.05644,-0.07902 0.05644,-0.2032 v -4.786494 h -1.896535 q -0.214489,0 -0.304801,0.06773 -0.09031,0.05644 -0.09031,0.225778 h -0.135467 v -1.33209 h 0.135467 q 0,0.293511 0.395112,0.293511 h 4.741338 q 0.395111,0 0.395111,-0.293511 h 0.135467 v 1.33209 h -0.135467 q 0,-0.169334 -0.09031,-0.225778 -0.09031,-0.06773 -0.3048,-0.06773 h -1.896533 v 4.786494 q 0,0.124178 0.05644,0.2032 0.05644,0.06773 0.214489,0.06773 v 0.135467 h -1.490135 z"
       id="path35248"
       style="font-weight:300;font-size:11.2889px;font-family:Copperplate;-inkscape-font-specification:'Copperplate, Light';fill:none;stroke:#ff0000;stroke-width:0.127" />
    <path
       d="m 51.135853,72.813914 q -1.151467,0 -1.783646,0.609601 -0.620889,0.598311 -0.620889,1.659468 0,1.061157 0.620889,1.670757 0.632179,0.598312 1.783646,0.598312 1.151468,0 1.772358,-0.598312 0.632178,-0.6096 0.632178,-1.670757 0,-1.061157 -0.632178,-1.659468 -0.62089,-0.609601 -1.772358,-0.609601 z m 0,-0.767645 q 0.733779,0 1.354668,0.2032 0.62089,0.191911 1.072446,0.587023 0.462845,0.383823 0.711201,0.948268 0.259644,0.564445 0.259644,1.298223 0,0.733779 -0.259644,1.298224 -0.248356,0.564445 -0.711201,0.948267 -0.451556,0.383823 -1.072446,0.575734 -0.620889,0.180623 -1.354668,0.180623 -0.733778,0 -1.354668,-0.180623 -0.620889,-0.191911 -1.083734,-0.575734 -0.451556,-0.383822 -0.711201,-0.948267 -0.248356,-0.564445 -0.248356,-1.298224 0,-0.733778 0.248356,-1.298223 0.259645,-0.564445 0.711201,-0.948268 0.462845,-0.395112 1.083734,-0.587023 0.62089,-0.2032 1.354668,-0.2032 z"
       id="path35251"
       style="font-weight:300;font-size:11.2889px;font-family:Copperplate;-inkscape-font-specification:'Copperplate, Light';fill:none;stroke:#ff0000;stroke-width:0.127" />
    <path
       d="m 60.042776,74.710449 q 0.688623,0 0.970845,-0.259644 0.282223,-0.259645 0.282223,-0.711201 0,-0.440267 -0.259645,-0.643467 -0.248356,-0.214489 -0.993423,-0.214489 h -2.551292 v 1.828801 z m -3.499559,-2.190046 q 0,-0.124178 -0.05644,-0.191912 -0.05644,-0.07902 -0.214489,-0.07902 v -0.135467 h 3.793071 q 1.117601,0 1.603023,0.41769 0.485423,0.417689 0.485423,1.174045 0,0.846668 -0.485423,1.309513 -0.474133,0.462845 -1.569157,0.462845 h -2.607741 v 2.167466 q 0,0.124178 0.05645,0.203201 0.05644,0.06773 0.214489,0.06773 v 0.135467 h -1.490135 v -0.135467 q 0.158045,0 0.214489,-0.06773 0.05644,-0.07902 0.05644,-0.203201 z"
       id="path35253"
       style="font-weight:300;font-size:11.2889px;font-family:Copperplate;-inkscape-font-specification:'Copperplate, Light';fill:none;stroke:#ff0000;stroke-width:0.127" />
    <path
       d="m 64.118067,72.520403 q 0,-0.124178 -0.05644,-0.191912 -0.05644,-0.07902 -0.214489,-0.07902 v -0.135467 h 4.730049 q 0.293512,0 0.372534,-0.04515 0.07902,-0.05645 0.07902,-0.180623 h 0.135467 v 1.286935 h -0.135467 q 0,-0.146756 -0.09031,-0.225778 -0.09031,-0.09031 -0.349956,-0.09031 h -3.522137 v 1.783646 h 2.291647 q 0.2032,0 0.327378,-0.06773 0.135467,-0.06773 0.135467,-0.248356 h 0.135467 v 1.365957 H 67.82083 q 0,-0.169334 -0.1016,-0.237067 -0.1016,-0.06773 -0.338667,-0.06773 h -2.314225 v 1.919113 h 3.770493 q 0.237067,0 0.349956,-0.07902 0.112889,-0.09031 0.112889,-0.3048 h 0.135467 v 1.343362 h -0.135471 q 0,-0.214489 -0.395111,-0.214489 h -5.057428 v -0.135467 q 0.158045,0 0.214489,-0.06773 0.05644,-0.07902 0.05644,-0.203201 z"
       id="path35255"
       style="font-weight:300;font-size:11.2889px;font-family:Copperplate;-inkscape-font-specification:'Copperplate, Light';fill:none;stroke:#ff0000;stroke-width:0.127" />
    <path
       d="m 75.136032,74.710449 q 0.688623,0 0.970845,-0.259644 0.282223,-0.259645 0.282223,-0.711201 0,-0.225778 -0.05645,-0.383823 -0.05644,-0.158044 -0.2032,-0.259644 -0.146756,-0.112889 -0.406401,-0.158045 -0.248355,-0.05644 -0.643467,-0.05644 h -2.41582 v 1.828801 z m -2.47227,2.935114 q 0,0.124178 0.05645,0.203201 0.05644,0.06773 0.214489,0.06773 v 0.135467 h -1.490135 v -0.135467 q 0.158045,0 0.214489,-0.06773 0.05644,-0.07902 0.05644,-0.203201 v -5.12516 q 0,-0.124178 -0.05644,-0.191912 -0.05644,-0.07902 -0.214489,-0.07902 v -0.135467 h 3.781782 q 1.117601,0 1.603024,0.428978 0.485422,0.41769 0.485422,1.219202 0,0.7112 -0.372533,1.12889 -0.372534,0.417689 -1.219202,0.530578 l 1.422402,2.201336 q 0.124178,0.180622 0.191911,0.237067 0.07902,0.05644 0.248356,0.05644 v 0.135467 h -1.625602 v -0.135467 q 0.146756,0 0.180623,-0.02258 0.04515,-0.02258 0.04515,-0.07902 0,-0.06773 -0.05644,-0.124178 L 74.74092,75.478095 h -2.077158 z"
       id="path35257"
       style="font-weight:300;font-size:11.2889px;font-family:Copperplate;-inkscape-font-specification:'Copperplate, Light';fill:none;stroke:#ff0000;stroke-width:0.127" />
    <path
       d="m 83.309175,75.72645 -1.275645,-2.66418 -1.174046,2.66418 z m -3.194758,1.64818 q -0.04516,0.1016 -0.1016,0.225778 -0.05644,0.124178 -0.05644,0.191911 0,0.124178 0.191911,0.124178 v 0.135467 h -1.388534 v -0.135467 q 0.06773,0 0.112889,-0.01129 0.05644,-0.01129 0.1016,-0.06773 0.04515,-0.05644 0.1016,-0.158045 0.05644,-0.112889 0.146756,-0.293511 l 2.043291,-4.560716 q 0.09031,-0.191911 0.135466,-0.282223 0.04516,-0.1016 0.04516,-0.158044 0,-0.135467 -0.2032,-0.135467 v -0.135467 h 1.648179 v 0.135467 q -0.180622,0 -0.180622,0.135467 0,0.06773 0.05644,0.180622 0.05644,0.1016 0.146756,0.293512 l 2.167469,4.492982 q 0.1016,0.2032 0.158044,0.316089 0.05644,0.112889 0.101601,0.169334 0.05644,0.05644 0.112889,0.06773 0.05644,0.01129 0.158044,0.01129 v 0.135467 h -1.569157 v -0.135467 q 0.135467,0 0.180622,-0.03387 0.04516,-0.04516 0.04516,-0.124178 0,-0.05644 -0.03387,-0.112889 -0.02258,-0.06773 -0.112889,-0.270933 l -0.428978,-0.903112 h -3.194759 z"
       id="path35259"
       style="font-weight:300;font-size:11.2889px;font-family:Copperplate;-inkscape-font-specification:'Copperplate, Light';fill:none;stroke:#ff0000;stroke-width:0.127" />
    <path
       d="m 52.219594,83.236954 q 0.688623,0 0.970846,-0.259645 0.282222,-0.259645 0.282222,-0.711201 0,-0.225778 -0.05644,-0.383822 -0.05644,-0.158045 -0.2032,-0.259645 -0.146756,-0.112889 -0.406401,-0.158044 -0.248356,-0.05644 -0.643467,-0.05644 h -2.415825 v 1.828802 z m -2.472269,2.935114 q 0,0.124178 0.05644,0.2032 0.05644,0.06773 0.214489,0.06773 v 0.135466 h -1.490135 v -0.135466 q 0.158045,0 0.214489,-0.06773 0.05645,-0.07902 0.05645,-0.2032 v -5.125161 q 0,-0.124178 -0.05645,-0.191911 -0.05644,-0.07902 -0.214489,-0.07902 v -0.135467 h 3.781782 q 1.117601,0 1.603024,0.428978 0.485422,0.417689 0.485422,1.219201 0,0.711201 -0.372533,1.12889 -0.372534,0.41769 -1.219202,0.530579 l 1.422402,2.201335 q 0.124178,0.180623 0.191911,0.237067 0.07902,0.05644 0.248356,0.05644 v 0.135466 h -1.625602 v -0.135466 q 0.146756,0 0.180623,-0.02258 0.04516,-0.02258 0.04516,-0.07902 0,-0.06773 -0.05644,-0.124177 l -1.388535,-2.212625 h -2.077158 z"
       id="path35262"
       style="font-weight:300;font-size:11.2889px;font-family:Copperplate;-inkscape-font-specification:'Copperplate, Light';fill:none;stroke:#ff0000;stroke-width:0.127" />
    <path
       d="m 59.579938,81.340419 q -1.151468,0 -1.783647,0.6096 -0.620889,0.598312 -0.620889,1.659469 0,1.061156 0.620889,1.670757 0.632179,0.598312 1.783647,0.598312 1.151467,0 1.772357,-0.598312 0.632178,-0.609601 0.632178,-1.670757 0,-1.061157 -0.632178,-1.659469 -0.62089,-0.6096 -1.772357,-0.6096 z m 0,-0.767646 q 0.733778,0 1.354668,0.203201 0.620889,0.191911 1.072445,0.587022 0.462845,0.383823 0.711201,0.948268 0.259645,0.564445 0.259645,1.298224 0,0.733778 -0.259645,1.298223 -0.248356,0.564445 -0.711201,0.948268 -0.451556,0.383822 -1.072445,0.575734 -0.62089,0.180622 -1.354668,0.180622 -0.733779,0 -1.354669,-0.180622 -0.620889,-0.191912 -1.083734,-0.575734 -0.451556,-0.383823 -0.711201,-0.948268 -0.248355,-0.564445 -0.248355,-1.298223 0,-0.733779 0.248355,-1.298224 0.259645,-0.564445 0.711201,-0.948268 0.462845,-0.395111 1.083734,-0.587022 0.62089,-0.203201 1.354669,-0.203201 z"
       id="path35264"
       style="font-weight:300;font-size:11.2889px;font-family:Copperplate;-inkscape-font-specification:'Copperplate, Light';fill:none;stroke:#ff0000;stroke-width:0.127" />
    <path
       d="m 66.353258,86.443002 q 0.158044,0 0.214489,-0.06773 0.05644,-0.07902 0.05644,-0.2032 v -4.786494 h -1.896535 q -0.214489,0 -0.3048,0.06773 -0.09031,0.05644 -0.09031,0.225778 h -0.135467 v -1.332091 h 0.135467 q 0,0.293512 0.395111,0.293512 h 4.741338 q 0.395112,0 0.395112,-0.293512 h 0.135467 v 1.332091 h -0.135467 q 0,-0.169334 -0.09031,-0.225778 -0.09031,-0.06773 -0.304801,-0.06773 h -1.896535 v 4.786494 q 0,0.124178 0.05644,0.2032 0.05644,0.06773 0.214489,0.06773 v 0.135466 h -1.490135 z"
       id="path35266"
       style="font-weight:300;font-size:11.2889px;font-family:Copperplate;-inkscape-font-specification:'Copperplate, Light';fill:none;stroke:#ff0000;stroke-width:0.127" />
    <path
       d="m 75.440802,84.252955 -1.275646,-2.664181 -1.174046,2.664181 z m -3.194759,1.648179 q -0.04516,0.1016 -0.1016,0.225778 -0.05644,0.124178 -0.05644,0.191912 0,0.124178 0.191912,0.124178 v 0.135466 H 70.89138 v -0.135466 q 0.06773,0 0.112889,-0.01129 0.05644,-0.01129 0.1016,-0.06773 0.04515,-0.05644 0.1016,-0.158044 0.05644,-0.112889 0.146756,-0.293512 l 2.043291,-4.560715 q 0.09031,-0.191912 0.135466,-0.282223 0.04516,-0.1016 0.04516,-0.158045 0,-0.135466 -0.2032,-0.135466 V 80.64051 h 1.648179 v 0.135467 q -0.180622,0 -0.180622,0.135466 0,0.06773 0.05644,0.180623 0.05644,0.1016 0.146756,0.293511 l 2.167469,4.492983 q 0.1016,0.2032 0.158045,0.316089 0.05644,0.112889 0.1016,0.169333 0.05644,0.05644 0.112889,0.06773 0.05644,0.01129 0.158044,0.01129 v 0.135466 h -1.569157 v -0.135466 q 0.135467,0 0.180623,-0.03387 0.04516,-0.04516 0.04516,-0.124178 0,-0.05645 -0.03387,-0.112889 -0.02258,-0.06773 -0.112889,-0.270934 l -0.428978,-0.903112 h -3.194759 z"
       id="path35268"
       style="font-weight:300;font-size:11.2889px;font-family:Copperplate;-inkscape-font-specification:'Copperplate, Light';fill:none;stroke:#ff0000;stroke-width:0.127" />
    <path
       d="m 79.628983,84.794822 q -0.03387,0.07902 -0.03387,0.146756 0,0.158044 0.191911,0.327378 0.2032,0.169333 0.51929,0.316089 0.327378,0.135467 0.733778,0.225778 0.406401,0.09031 0.82409,0.09031 1.072445,0 1.546579,-0.316089 0.485423,-0.316089 0.485423,-0.812801 0,-0.237067 -0.124178,-0.395111 -0.112889,-0.158045 -0.327378,-0.237067 -0.2032,-0.09031 -0.485423,-0.124178 -0.270933,-0.03387 -0.587023,-0.03387 -0.519289,0 -1.106312,0 -0.575734,-0.01129 -1.061156,-0.146755 -0.485423,-0.146756 -0.801512,-0.474134 -0.31609,-0.327378 -0.31609,-0.970846 0,-0.4064 0.225778,-0.733778 0.225778,-0.338667 0.609601,-0.575734 0.395112,-0.237067 0.92569,-0.372534 0.530578,-0.135467 1.151468,-0.135467 0.485422,0 0.835378,0.06773 0.361245,0.06773 0.62089,0.146756 0.259645,0.07902 0.428978,0.146755 0.169334,0.06773 0.282223,0.06773 0.124177,0 0.180622,-0.04516 0.05644,-0.04516 0.112889,-0.1016 l 0.135467,0.05644 -0.62089,1.298224 -0.124178,-0.07902 q 0.01129,-0.03387 0.01129,-0.146756 0,-0.07902 -0.135467,-0.191911 -0.135466,-0.112889 -0.383822,-0.214489 -0.248356,-0.112889 -0.598312,-0.180623 -0.338667,-0.07902 -0.745067,-0.07902 -0.914401,0 -1.456268,0.293511 -0.530579,0.293512 -0.530579,0.767645 0,0.21449 0.112889,0.349956 0.124178,0.124178 0.327378,0.203201 0.214489,0.06773 0.485423,0.09031 0.282223,0.02258 0.598312,0.02258 0.530578,0 1.106312,0.02258 0.575734,0.01129 1.061157,0.169334 0.485422,0.158044 0.801512,0.508 0.316089,0.349956 0.316089,1.02729 0,0.361245 -0.191912,0.699912 -0.180622,0.327378 -0.553156,0.587023 -0.372533,0.259645 -0.925689,0.4064 -0.541868,0.146756 -1.264357,0.146756 -0.609601,0 -1.061157,-0.09031 -0.440267,-0.1016 -0.756356,-0.225778 -0.316089,-0.135467 -0.51929,-0.237067 -0.2032,-0.112889 -0.327378,-0.112889 -0.112889,0 -0.237067,0.135467 l -0.112889,-0.06773 0.609601,-1.298223 z"
       id="path35270"
       style="font-weight:300;font-size:11.2889px;font-family:Copperplate;-inkscape-font-specification:'Copperplate, Light';fill:none;stroke:#ff0000;stroke-width:0.127" />
  </g>
</svg>
